# xmcd
#
# Track frame offsets: 
#        150
#        13731
#        27194
#        42485
#        55542
#        75330
#        87450
#        108320
#        123620
#        137978
#
# Disc length: 2030 seconds
#
# Revision: 1
# Processed by: cddbd v1.5.2PL0 Copyright (c) Steve Scherf et al.
# Submitted via: ExactAudioCopy v0.99pb5
#
DISCID=7d07ec0a
DTITLE=Joe Price - Designated Driver
DYEAR=2000
DGENRE=Blues
TTITLE0=La Crosse Fever Blues
TTITLE1=Nobody But You
TTITLE2=Red River Valley
TTITLE3=Blues Juice
TTITLE4=I Don't Know Why
TTITLE5=Headache
TTITLE6=Rescue Boat Blues
TTITLE7=Chuggin'
TTITLE8=Put Your Arms Around Me
TTITLE9=Designated Driver
EXTD=YEAR: 2000
EXTT0=
EXTT1=
EXTT2=
EXTT3=
EXTT4=
EXTT5=
EXTT6=
EXTT7=
EXTT8=
EXTT9=
PLAYORDER=
